<svg xmlns="http://www.w3.org/2000/svg" width="1200" height="620" viewBox="0 0 1200 620">
<rect width="1200" height="620" rx="30" fill="#f8fbff"/>
<style>
.card{fill:#fff;stroke:#d9e3ef;stroke-width:2}
.name{font-family:Arial,Helvetica,sans-serif;font-weight:800;text-anchor:middle;fill:#0f172a}
.sub{font-family:Arial,Helvetica,sans-serif;font-size:12px;font-weight:600;fill:#64748b;text-anchor:middle}
.logo{preserveAspectRatio="xMidYMid meet"}
</style>
<!-- Row 1 -->
<g transform="translate(20,20)"><rect class="card" width="370" height="135" rx="22"/><image class="logo" href="https://images.kiwi.com/airlines/128/OD.png" x="28" y="27" width="90" height="80"/><text x="245" y="64" class="name" font-size="27">Batik Air</text><text x="245" y="92" class="sub">OD • Malaysia</text></g>
<g transform="translate(415,20)"><rect class="card" width="370" height="135" rx="22"/><image class="logo" href="https://images.kiwi.com/airlines/128/MH.png" x="28" y="27" width="90" height="80"/><text x="245" y="64" class="name" font-size="24">Malaysia Airlines</text><text x="245" y="92" class="sub">MH • Malaysia</text></g>
<g transform="translate(810,20)"><rect class="card" width="370" height="135" rx="22"/><image class="logo" href="https://images.kiwi.com/airlines/128/AK.png" x="28" y="27" width="90" height="80"/><text x="245" y="64" class="name" font-size="28">AirAsia</text><text x="245" y="92" class="sub">AK • Malaysia</text></g>
<!-- Row 2 -->
<g transform="translate(20,175)"><rect class="card" width="370" height="135" rx="22"/><image class="logo" href="https://images.kiwi.com/airlines/128/BS.png" x="28" y="27" width="90" height="80"/><text x="245" y="64" class="name" font-size="24">US-Bangla Airlines</text><text x="245" y="92" class="sub">BS • Bangladesh</text></g>
<g transform="translate(415,175)"><rect class="card" width="370" height="135" rx="22"/><image class="logo" href="https://images.kiwi.com/airlines/128/BG.png" x="28" y="27" width="90" height="80"/><text x="245" y="64" class="name" font-size="28">Biman Bangladesh</text><text x="245" y="92" class="sub">BG • Bangladesh</text></g>
<g transform="translate(810,175)"><rect class="card" width="370" height="135" rx="22"/><image class="logo" href="https://images.kiwi.com/airlines/128/TG.png" x="28" y="27" width="90" height="80"/><text x="245" y="64" class="name" font-size="28">Thai Airways</text><text x="245" y="92" class="sub">TG • Thailand</text></g>
<!-- Row 3 -->
<g transform="translate(20,330)"><rect class="card" width="370" height="135" rx="22"/><image class="logo" href="https://images.kiwi.com/airlines/128/TR.png" x="28" y="27" width="90" height="80"/><text x="245" y="64" class="name" font-size="27">Scoot</text><text x="245" y="92" class="sub">TR • Singapore</text></g>
<g transform="translate(415,330)"><rect class="card" width="370" height="135" rx="22"/><image class="logo" href="https://images.kiwi.com/airlines/128/6E.png" x="28" y="27" width="90" height="80"/><text x="245" y="64" class="name" font-size="28">IndiGo</text><text x="245" y="92" class="sub">6E • India</text></g>
<g transform="translate(810,330)"><rect class="card" width="370" height="135" rx="22"/><image class="logo" href="https://images.kiwi.com/airlines/128/SQ.png" x="28" y="27" width="90" height="80"/><text x="245" y="64" class="name" font-size="25">Singapore Airlines</text><text x="245" y="92" class="sub">SQ • Singapore</text></g>
<!-- Row 4 -->
<g transform="translate(20,485)"><rect class="card" width="370" height="115" rx="22"/><image class="logo" href="https://images.kiwi.com/airlines/128/SL.png" x="28" y="22" width="80" height="70"/><text x="245" y="57" class="name" font-size="25">SriLankan Airlines</text><text x="245" y="82" class="sub">UL • Sri Lanka</text></g>
<g transform="translate(415,485)"><rect class="card" width="370" height="115" rx="22"/><image class="logo" href="https://images.kiwi.com/airlines/128/GA.png" x="28" y="22" width="80" height="70"/><text x="245" y="57" class="name" font-size="27">Garuda Indonesia</text><text x="245" y="82" class="sub">GA • Indonesia</text></g>
<g transform="translate(810,485)"><rect class="card" width="370" height="115" rx="22"/><circle cx="68" cy="57" r="36" fill="#2563eb"/><text x="68" y="64" text-anchor="middle" font-family="Arial" font-size="16" font-weight="800" fill="#fff">✈</text><text x="245" y="57" class="name" font-size="24">More Airlines</text><text x="245" y="82" class="sub">Ask MIAH WORLD</text></g>
</svg>